<svg width="145" height="25" viewBox="0 0 145 25" fill="none" xmlns="http://www.w3.org/2000/svg">
<path fill-rule="evenodd" clip-rule="evenodd" d="M11.288 3.71C11.736 2.633 13.264 2.633 13.712 3.71L15.794 8.716L21.198 9.15C22.362 9.243 22.834 10.695 21.947 11.455L17.83 14.982L19.087 20.255C19.358 21.391 18.123 22.288 17.127 21.68L12.5 18.854L7.873 21.68C6.877 22.288 5.642 21.39 5.913 20.255L7.17 14.982L3.053 11.455C2.166 10.695 2.638 9.243 3.802 9.15L9.206 8.716L11.288 3.71Z" fill="#FF9E0C"/>
<path fill-rule="evenodd" clip-rule="evenodd" d="M41.288 3.71C41.736 2.633 43.264 2.633 43.712 3.71L45.794 8.716L51.198 9.15C52.362 9.243 52.834 10.695 51.947 11.455L47.83 14.982L49.087 20.255C49.358 21.391 48.123 22.288 47.127 21.68L42.5 18.854L37.873 21.68C36.877 22.288 35.642 21.39 35.913 20.255L37.17 14.982L33.053 11.455C32.166 10.695 32.638 9.243 33.802 9.15L39.206 8.716L41.288 3.71Z" fill="#FF9E0C"/>
<path fill-rule="evenodd" clip-rule="evenodd" d="M71.288 3.71C71.736 2.633 73.264 2.633 73.712 3.71L75.794 8.716L81.198 9.15C82.362 9.243 82.834 10.695 81.947 11.455L77.83 14.982L79.087 20.255C79.358 21.391 78.123 22.288 77.127 21.68L72.5 18.854L67.873 21.68C66.877 22.288 65.642 21.39 65.913 20.255L67.17 14.982L63.053 11.455C62.166 10.695 62.638 9.243 63.802 9.15L69.206 8.716L71.288 3.71Z" fill="#FF9E0C"/>
<path fill-rule="evenodd" clip-rule="evenodd" d="M101.288 3.71C101.736 2.633 103.264 2.633 103.712 3.71L105.794 8.716L111.198 9.15C112.362 9.243 112.834 10.695 111.947 11.455L107.83 14.982L109.087 20.255C109.358 21.391 108.123 22.288 107.127 21.68L102.5 18.854L97.873 21.68C96.877 22.288 95.642 21.39 95.913 20.255L97.17 14.982L93.053 11.455C92.166 10.695 92.638 9.243 93.802 9.15L99.206 8.716L101.288 3.71Z" fill="#FF9E0C"/>
<path fill-rule="evenodd" clip-rule="evenodd" d="M131.288 3.71C131.736 2.633 133.264 2.633 133.712 3.71L135.794 8.716L141.198 9.15C142.362 9.243 142.834 10.695 141.947 11.455L137.83 14.982L139.087 20.255C139.358 21.391 138.123 22.288 137.127 21.68L132.5 18.854L127.873 21.68C126.877 22.288 125.642 21.39 125.913 20.255L127.17 14.982L123.053 11.455C122.166 10.695 122.638 9.243 123.802 9.15L129.206 8.716L131.288 3.71Z" fill="#FF9E0C"/>
</svg>
